<svg xmlns="http://www.w3.org/2000/svg" xmlns:svg="http://www.w3.org/2000/svg" id="svg3805" width="361.778" height="512" version="1.1" viewBox="0 0 361.778 512"><metadata id="metadata3811"/><linearGradient id="a" x1="305.654" x2="55.277" y1="176.027" y2="332.482" gradientUnits="userSpaceOnUse"><stop id="stop3782" offset="0" stop-color="#838383"/><stop id="stop3784" offset="1" stop-color="#939393"/></linearGradient><linearGradient id="b" x1="23.562" x2="179.792" y1="239.831" y2="91.729" gradientUnits="userSpaceOnUse"><stop id="stop3787" offset="0" stop-color="#848484"/><stop id="stop3789" offset="1" stop-color="#969696"/></linearGradient><linearGradient id="c" x1="169.669" x2="161.791" y1="384.093" y2="494.796" gradientUnits="userSpaceOnUse"><stop id="stop3792" offset="0" stop-color="#818181"/><stop id="stop3794" offset="1" stop-color="#999"/></linearGradient><g id="g3803" fill-rule="evenodd" stroke-width=".249"><path id="path3797" fill="url(#b-124)" d="m-.00000041 301.93913v-196.37263l180.93908041-105.5665 180.83934 104.71877-43.71759 81.20692-137.09682-84.94687-93.124907 55.10202v95.04475z"/><path id="path3799" fill="url(#c-675)" d="m361.62883 210.0858v196.37263l-180.86428 105.54157-180.6398852-104.59411 54.6981052-69.51083 125.94178 73.15105 93.05011-55.15188v-94.99489z"/><path id="path3801" fill="url(#a-557)" d="m.1246648 407.40589 361.6537552-211.33246v-91.35466l-361.77842041 211.28259z"/></g><linearGradient id="b-124" x1="23.562" x2="179.792" y1="239.831" y2="91.729" gradientUnits="userSpaceOnUse"><stop id="stop3879" offset="0" stop-color="#848484"/><stop id="stop3881" offset="1" stop-color="#969696"/></linearGradient><linearGradient id="c-675" x1="169.669" x2="161.791" y1="384.093" y2="494.796" gradientUnits="userSpaceOnUse"><stop id="stop3884" offset="0" stop-color="#818181"/><stop id="stop3886" offset="1" stop-color="#999"/></linearGradient><linearGradient id="a-557" x1="305.654" x2="55.277" y1="176.027" y2="332.482" gradientUnits="userSpaceOnUse"><stop id="stop3889" offset="0" stop-color="#838383"/><stop id="stop3891" offset="1" stop-color="#939393"/></linearGradient></svg>